<svg xmlns="http://www.w3.org/2000/svg" viewBox="0 0 200 200" width="200" height="200">
  <defs>
    <linearGradient id="g" x1="0%" y1="0%" x2="100%" y2="100%">
      <stop offset="0%" stop-color="#0A5C36"/>
      <stop offset="100%" stop-color="#064026"/>
    </linearGradient>
  </defs>
  <circle cx="100" cy="100" r="95" fill="url(#g)"/>
  <g fill="none" stroke="#fff" stroke-width="3" stroke-linecap="round" stroke-linejoin="round">
    <circle cx="100" cy="100" r="40" fill="rgba(255,255,255,0.15)" stroke-width="0"/>
    <path d="M72 65v80h56V65z" fill="rgba(255,255,255,0.08)" stroke="none"/>
    <path d="M72 65v80h56V65z" fill="none"/>
    <path d="M82 65V55a8 8 0 0 1 8-8h20a8 8 0 0 1 8 8v10" fill="rgba(255,255,255,0.08)" stroke="none"/>
    <path d="M82 65V55a8 8 0 0 1 8-8h20a8 8 0 0 1 8 8v10" fill="none"/>
    <path d="M82 82h36M82 92h36M82 102h26M82 112h36M82 122h20M82 132h30"/>
    <path d="M135 70l10 5v15" stroke-width="2" fill="none"/>
    <path d="M145 70l12 12" stroke-width="2" fill="none"/>
  </g>
</svg>