<svg xmlns="http://www.w3.org/2000/svg" viewBox="0 0 200 200" width="200" height="200">
  <defs>
    <linearGradient id="g" x1="0%" y1="0%" x2="100%" y2="100%">
      <stop offset="0%" stop-color="#0A5C36"/>
      <stop offset="100%" stop-color="#064026"/>
    </linearGradient>
  </defs>
  <circle cx="100" cy="100" r="95" fill="url(#g)"/>
  <g fill="none" stroke="#fff" stroke-width="3" stroke-linecap="round" stroke-linejoin="round">
    <circle cx="100" cy="100" r="40" fill="rgba(255,255,255,0.15)" stroke-width="0"/>
    <path d="M60 120V90l40-25 40 25v30" fill="rgba(255,255,255,0.08)" stroke="none"/>
    <path d="M60 120V90l40-25 40 25v30" fill="none"/>
    <rect x="75" y="95" width="50" height="25" rx="2" fill="rgba(255,255,255,0.12)" stroke="none"/>
    <rect x="75" y="95" width="50" height="25" rx="2" fill="none"/>
    <path d="M80 102h40M80 110h40"/>
    <path d="M90 95v-5M110 95v-5"/>
    <path d="M85 120v10h30v-10" fill="rgba(255,255,255,0.1)" stroke="none"/>
    <path d="M95 120v8M105 120v8" stroke-width="2"/>
  </g>
</svg>